<?xml version="1.0" encoding="utf-8"?>
<!-- Generator: Adobe Illustrator 16.0.3, SVG Export Plug-In . SVG Version: 6.00 Build 0)  -->
<!DOCTYPE svg PUBLIC "-//W3C//DTD SVG 1.1//EN" "http://www.w3.org/Graphics/SVG/1.1/DTD/svg11.dtd">
<svg version="1.1" id="svg2" xmlns:svg="http://www.w3.org/2000/svg"
	 xmlns="http://www.w3.org/2000/svg" xmlns:xlink="http://www.w3.org/1999/xlink" x="0px" y="0px" width="744.094px"
	 height="1052.363px" viewBox="0 0 744.094 1052.363" enable-background="new 0 0 744.094 1052.363" xml:space="preserve">
<path id="path1380" fill="#FFFFFF" d="M217.303,1027.734c-0.872-0.395-2.379-1.408-3.349-2.254
	c-3.695-3.221-6.101-3.836-9.474-2.426c-2.354,0.982-3.367,0.359-3.367-2.07c0-2.307,1.458-3.57,3.31-2.865
	c0.767,0.291,1.519,0.529,1.672,0.529c0.596,0-0.259-3.998-1.404-6.566l-1.206-2.705l1.049-1.404
	c0.668-0.895,1.78-1.551,3.064-1.811c1.108-0.223,2.421-0.893,2.917-1.486c1.802-2.162,1.085-3.639-3.606-7.434
	c-1.521-1.23-1.674-1.613-1.674-4.176c0-3.145-0.387-4.107-2.902-7.221c-0.954-1.182-1.735-2.52-1.735-2.973
	c0-0.455-3.854-10.732-4.617-11.883c-0.753-1.133-2.144-3.865-3.09-6.07s-1.918-4.131-2.159-4.281
	c-0.241-0.148-0.438-1.076-0.438-2.059c0-3.363,2.832-3.01,6.604,0.822c2.062,2.096,2.86,2.572,4.301,2.572
	c2.154,0,3.006-0.766,3.006-2.703c0-1.146-0.793-2.227-3.613-4.92c-3.222-3.08-3.647-3.715-3.929-5.865
	c-0.613-4.678,0.541-6.146,3.77-4.797c1.01,0.422,2.626,0.768,3.59,0.768c1.433,0,1.856-0.258,2.316-1.416
	c1.259-3.166,1.357-4.756,0.508-8.234c-0.809-3.312-0.921-3.48-2.253-3.34c-1.809,0.189-4.035-0.979-5.749-3.016
	c-1.185-1.406-1.32-1.926-1.05-4.01c0.282-2.182-9.268-12.941-9.788-13.234c-0.668-0.379-1.076-1.488-1.391-3.789
	c-0.307-2.244-5.597-13.959-5.597-14.467c0-1.613-1.553-4.709-2.977-5.934c-1.3-1.117-1.335-1.264-0.623-2.596
	c0.958-1.787,0.714-3.789-0.638-5.248c-0.941-1.016-0.984-1.311-0.395-2.734c0.471-1.137,0.502-1.752,0.106-2.148
	c-0.396-0.395-0.778-0.018-1.336,1.316c-0.615,1.473-1.068,1.871-2.123,1.871c-2.763,0-3.464-5.066-1.802-13.025
	c0.924-4.426,0.421-6.102-2.586-8.621c-1.75-1.463-2.742-2.773-3.161-4.17c-0.588-1.963-0.548-2.098,1.105-3.805l1.715-1.77
	l-2.144-2.324c-1.239-1.346-2.144-2.834-2.144-3.529c0-0.701,0.959-2.264,2.302-3.748c2.775-3.066,3.588-5.225,3.201-8.498
	c-0.3-2.529-0.063-3.602,1.999-9.047c0.914-2.414,1.141-3.863,0.969-6.184c-0.331-4.455-0.586-5.168-2.295-6.385
	c-2.229-1.586-4.045-0.99-8.136,2.678c-3.403,3.053-6.51,5-7.074,4.438c-0.707-0.707,0.609-3.273,2.906-5.67
	c1.375-1.434,2.353-2.842,2.174-3.131c-0.182-0.295-0.911,0.189-1.663,1.104c-1.46,1.775-2.83,2.084-3.55,0.797
	c-0.517-0.924-0.223-3.166,0.47-3.596c0.25-0.154,0.454-1.113,0.454-2.133c0-1.705-0.072-1.793-0.901-1.107
	c-2.131,1.764-3.658,2.207-5.046,1.463c-1.842-0.986-1.46-2.58,0.923-3.852c1.062-0.566,1.932-1.324,1.932-1.684
	c0.001-0.359-0.569-1.752-1.267-3.092c-1.208-2.32-1.239-2.607-0.658-5.973c0.61-3.533,0.608-3.539-1.102-6.627
	c-0.968-1.746-1.711-3.828-1.711-4.787c0-2.535,0.632-5.031,1.533-6.051c0.851-0.965,0.884-0.779-1.21-6.713
	c-0.713-2.02-0.773-2.951-0.333-5.152c0.295-1.477,0.413-3.33,0.261-4.119c-0.351-1.826,0.942-3.328,3.237-3.76
	c0.935-0.174,2.115-0.777,2.624-1.34c0.835-0.924,4.267-2.691,4.581-2.361c0.071,0.076,0.393,2.338,0.717,5.031
	c0.323,2.691,1.073,6.227,1.665,7.857c0.998,2.744,1.194,2.961,2.682,2.955c3.479-0.016,3.793-0.316,4.753-4.553
	c0.69-3.051,1.282-4.355,2.613-5.773c1.636-1.74,1.732-2.059,1.945-6.439c0.125-2.58,0.592-5.49,1.06-6.609
	c0.951-2.273,0.789-3.721-1.86-16.615c-0.823-4.006-1.481-7.6-1.463-7.986c0.019-0.389,2.196-2.561,4.84-4.826l4.807-4.123
	l0.351-3.072c0.342-3,0.312-3.105-1.27-4.396l-1.621-1.322l2.577-2.174c2.042-1.723,2.985-2.174,4.545-2.176
	c3.194-0.004,5.907-0.99,8.924-3.242c3.854-2.877,8.201-7.025,9.009-8.598c0.406-0.789,0.809-4.516,1.032-9.539l0.366-8.242
	l2.215-2.318c2.131-2.232,2.234-2.49,2.727-6.861l0.512-4.543l-3.485-8.666c-2.9-7.209-3.807-10.238-5.401-18.035
	c-1.054-5.154-1.803-9.484-1.665-9.623s3.687-1.059,7.886-2.047s7.68-1.842,7.735-1.9c0.588-0.615,6.383-21.242,6.144-21.867
	c-0.177-0.463-2.11-3.682-4.295-7.154l-3.972-6.312l-2.714-0.584c-2.564-0.553-2.992-0.896-7.766-6.236l-5.051-5.65l1.692-10.67
	c0.931-5.867,2.319-14.727,3.084-19.686l1.393-9.015l-3.179-13.305l-3.179-13.304l1.833-3.127l1.833-3.128l-0.354-6.058
	l-0.354-6.058l2.438-4.472c1.341-2.46,2.319-4.859,2.173-5.333c-0.146-0.474-1.116-3.179-2.157-6.013
	c-3.805-10.365-3.902-13.636-0.529-17.882c0.966-1.217,2.718-3.947,3.894-6.068l2.138-3.856l-0.593-3.872
	c-0.497-3.249-0.466-4.227,0.196-6.076c1.047-2.927,3.683-6.833,7.758-11.494c1.836-2.1,5.635-6.948,8.443-10.773
	c2.807-3.826,5.538-7.332,6.069-7.792c1.361-1.178,5.551-2.453,9.751-2.967c3.045-0.373,4.655-0.22,10.792,1.029
	c3.967,0.807,9.068,1.919,11.334,2.472c2.267,0.553,4.263,0.847,4.436,0.654c0.172-0.193,1.266-3.069,2.431-6.392l2.117-6.04
	l-0.318-9.176l-0.318-9.176l-6.085-4.104c-3.347-2.257-6.095-4.309-6.105-4.56c-0.011-0.251,3.389-6.395,7.555-13.653
	s9.037-15.748,10.825-18.865c3.262-5.687,3.697-6.799,4.771-12.185c0.5-2.507,0.848-3.088,2.509-4.188l1.929-1.276l0.637-13.029
	c0.402-8.221,1.037-15.291,1.72-19.158l1.083-6.129l-1.101-9.886c-0.606-5.437-1.1-10.614-1.099-11.504l0.002-1.619l5.885-0.187
	l5.885-0.187l7.511-5.111c4.13-2.811,7.513-5.245,7.515-5.407c0.003-0.163-0.367-3.438-0.822-7.279l-0.827-6.982l3.886-5.421
	c4.531-6.323,7.337-10.989,11.112-18.482c2.337-4.64,3.424-6.118,7.637-10.384l4.912-4.975l0.443-5.587
	c0.244-3.073,0.483-5.82,0.531-6.105c0.047-0.285-1.807-4.434-4.121-9.22c-2.314-4.787-4.195-9.191-4.181-9.787l3.322-7.782
	l3.191-0.428l3.192-0.427l2.309-7.301c1.27-4.016,3.286-10.431,4.482-14.256l2.173-6.956l7.162-6.183
	c3.939-3.4,7.347-6.248,7.571-6.327c1.127-0.397,9.238,3.764,12.314,6.318l3.4,2.821l3.523-8.239l3.525-8.239l-1.518-7.851
	c-1.576-8.158-1.59-10.952-0.076-15.539c1.107-3.355,5.291-5.7,7.84-4.394l5.508,4.765l3.605-0.335
	c1.982-0.184,4.141-0.537,4.797-0.783c0.926-0.349,3.994,0.565,13.812,4.113c6.943,2.508,12.74,4.565,12.885,4.57l6.125-8.556
	c0,0-6.129-4.622-6.129-4.815s0.594-0.908,1.318-1.589c2.127-1.999,4.201-6.111,5.678-11.252c2.355-8.214,1.238-14.278-3.428-18.598
	c-3.469-3.211-2.959-5.672,1.176-5.672c1.15,0,3.52-0.263,5.262-0.584c4.381-0.807,8.27,0.312,11.172,3.214
	c1.783,1.784,2.027,2.289,1.738,3.607c-0.48,2.185,0.658,3.62,4.641,5.847c4.012,2.243,9.66,7.359,10.582,9.583
	c0.408,0.986,10.547,8.383,11.672,8.687c2.033,0.547,3.418,1.773,6.018,5.325c1.531,2.092,2.752,2.395,4.648,1.152
	c1.09-0.713,4.266,1.295,4.795,1.295c0.531,0,2.889,0.812,5.24,1.803c2.354,0.992,10.689,4.702,12.133,5.41
	c1.947,0.957,2.758,1.696,3.139,2.873c0.283,0.871,0.912,1.98,1.398,2.464c1.033,1.031,2.031,8.017,3.52,7.72
	c2.014-0.403,3.65,1.055,5.682,5.062c1.133,2.233,2.213,3.433,4.594,5.103c1.711,1.201,3.572,2.929,4.137,3.84l1.023,1.656
	l-1.121,2.514c-1.029,2.308-1.139,3.55-1.33,15.137c-0.117,6.943-0.016,13.511,0.223,14.596c0.43,1.953,0.461,1.975,3.113,2.118
	c3.277,0.177,5.133,1.318,6.166,3.791c1.152,2.755,0.641,6.393-1.529,10.878l-1.848,3.819c0,0,4.271,8.021,5.672,10.253
	c2.857,4.561,6.018,10.663,7.594,14.668c0.914,2.319,1.074,4.04,1.201,12.88c0.146,10.055,0.129,10.249-1.211,13.295
	c-1.936,4.404-2.219,6.81-1.248,10.6c1.059,4.128,2.477,6.673,7.59,13.615c4.361,5.921,7.125,11.134,7.125,13.443
	c0,0.747,0.914,3.418,2.031,5.937l2.033,4.578h-2.227c-1.352,0-2.48,0.304-2.869,0.773c-0.352,0.425-5.814,1.543-6.498,1.027
	c-1.252-0.948-3.355-0.947-6.896,0.003c-1.559,0.418-4.404,0.764-6.324,0.767l-3.49,0.006l0.822,1.253
	c1.021,1.559,0.484,2.747-2.15,4.756l-1.855,1.415l-1.016-1.394c-0.59-0.811-1.506-1.394-2.189-1.394
	c-0.793,0-2.355-1.252-4.822-3.864c-3.477-3.685-5.379-4.997-4.289-2.96c0.305,0.568,0.295,1.861-0.023,3.478l-0.51,2.573
	l-2.416,0.035c-2.305,0.034-2.48-0.067-3.801-2.19c-0.762-1.224-1.77-2.225-2.236-2.225c-0.717,0-0.797,0.366-0.504,2.315
	c0.262,1.752,0.127,2.687-0.557,3.843c-0.818,1.388-0.828,1.613-0.1,2.451c1.08,1.24,1.639,7.579,0.795,9.009
	c-0.447,0.761-0.465,1.125-0.057,1.273c1.516,0.555,2.412,1.618,2.084,2.475c-0.299,0.776-0.773,0.858-3.305,0.574
	c-2.717-0.305-2.875-0.268-1.957,0.457c0.551,0.434,1.605,0.788,2.346,0.788c1.445,0,2.58,0.833,2.58,1.896
	c0,0.363-0.932,1.135-2.07,1.716l-2.072,1.057l-1.186-1.28c-0.938-1.011-1.896-1.353-4.559-1.625
	c-1.926-0.197-3.754-0.131-4.264,0.153c-0.777,0.436-0.66,0.635,0.924,1.57c2.473,1.459,3.777,3.47,2.92,4.502
	c-0.352,0.423-3.143,2.417-3.838,3.112c-1.061,1.061-1.762,1.265-4.346,1.265c-3.369,0-5.107,0.487-6.418,1.797
	c-1.281,1.282-1.072,1.664,1.547,2.823c2.15,0.952,2.488,0.98,3.26,0.282c1.189-1.076,1.5-0.988,2.102,0.593
	c0.449,1.184,0.318,1.591-0.957,2.962c-4.074,4.382-4.467,5.697-2.424,8.125c1.58,1.879,1.701,3.513,0.258,3.513
	c-1.266,0-1.289,0.484-0.129,2.56c0.869,1.555,0.865,1.64-0.1,2.36c-0.549,0.411-1.535,0.747-2.189,0.747
	c-1.619,0-1.488,0.599,0.359,1.651c1.928,1.096,1.982,1.953,0.125,1.967c-0.996,0.008-2.238,0.802-4.193,2.682
	c-2.617,2.517-2.746,2.757-2.221,4.148c0.68,1.799,0.434,2.556-1.045,3.216c-0.621,0.277-1.584,1.287-2.137,2.244
	c-1.33,2.296-0.68,3.331,2.307,3.67c2.09,0.237,2.279,0.382,2.422,1.847c0.09,0.927-0.156,1.848-0.592,2.208
	c-0.643,0.535-0.594,0.895,0.361,2.639c1.104,2.015,1.104,2.021,0.074,2.773c-1.021,0.747-1.02,0.765,0.219,2.083
	c0.812,0.864,1.805,1.333,2.834,1.337c1.898,0.009,2.512,0.372,3.363,1.989c0.514,0.973,0.516,1.467,0.008,2.413
	c-0.549,1.028-0.449,1.509,0.744,3.543c1.369,2.336,1.391,2.349,2.836,1.601c2.758-1.426,2.922,1.133,0.285,4.414
	c-1.463,1.822-1.764,2.569-1.539,3.841c0.395,2.243-1.357,3.767-4.805,4.175c-2.6,0.308-2.666,0.359-3.195,2.432
	c-0.896,3.521-1.621,4.994-2.854,5.8c-2.457,1.61-3.324,4.011-4.34,12.022c-0.322,2.55-0.844,4.293-1.541,5.152
	c-1.547,1.908-3.096,5.555-3.445,8.116c-0.395,2.867-1.684,4.484-4.867,6.098c-3.74,1.896-4.568,2.912-4.568,5.614
	c0,1.747-0.24,2.429-0.996,2.834c-1.738,0.93-2.041,0.603-2.199-2.389c-0.209-3.966-1.439-4.437-1.336-0.512
	c0.049,1.911-0.215,3.264-0.816,4.183c-1.115,1.701-3.129,2.53-4.441,1.827c-1.777-0.951-2.518-0.585-3.086,1.526
	c-0.58,2.153-2.111,3.605-3.855,3.655c-0.668,0.02-1.623,0.93-2.645,2.521c-1.479,2.305-1.549,2.611-0.93,4.085
	c0.635,1.509,0.578,1.69-1.08,3.449c-0.963,1.021-1.99,1.708-2.283,1.527c-0.293-0.182-1.439-1.884-2.551-3.784
	c-2.104-3.604-3.941-5.662-4.529-5.074c-0.189,0.189,0.383,2.251,1.271,4.581c1.51,3.95,1.564,4.318,0.816,5.46l-0.803,1.225
	l-1.652-1.6c-1.02-0.988-2.184-1.601-3.043-1.601c-1.264,0-1.393,0.179-1.404,1.932c-0.021,3.357-0.889,5.993-2.361,7.168
	c-0.766,0.612-2.227,2.683-3.246,4.601c-2.615,4.925-2.973,5.04-6.441,2.076c-2.119-1.812-3.143-2.367-3.906-2.125
	c-1.504,0.478-1.275,1.128,0.736,2.081c2.188,1.039,1.986,1.744-1.189,4.169c-1.736,1.325-2.764,1.761-3.799,1.609
	c-1.264-0.186-1.42-0.048-1.42,1.244c0,1.066-0.961,2.545-3.609,5.55c-1.986,2.254-3.898,4.284-4.252,4.512
	c-0.375,0.243,0.744,0.521,2.705,0.673c2.643,0.203,3.379,0.445,3.514,1.153c0.107,0.562-0.324,1.121-1.154,1.499
	c-1.459,0.665-1.762,1.469-0.553,1.469c0.426,0,0.773,0.375,0.773,0.833c0,1.182-3.461,5.75-4.641,6.124
	c-1.164,0.369-3.809-2.32-4.102-2.32c-0.93,0-0.572,1.797,0.547,2.755c1.031,0.884,1.039,0.967,0.172,1.923
	c-0.988,1.093-5.246,2.536-7.48,2.536c-0.93,0-4.139-3.092-4.299-3.092c-0.756,0-0.168,2.252,0.789,3.027
	c1.17,0.947,1.953,4.04,1.988,7.852c0.016,1.633,0.373,2.822,1.139,3.796l1.115,1.418c0,0-2.498,4.431-3.021,3.45
	c-0.549-1.024-0.58-1.017-1.174,0.289c-0.336,0.737-0.611,1.765-0.611,2.283c0,1.382-1.17,2.131-3.963,2.536
	c-2.434,0.353-2.477,0.392-2.414,2.151c0.037,0.985,0.152,2.487,0.258,3.338c0.174,1.38,0.059,1.53-1.074,1.403
	c-0.699-0.078-3.982-2.34-4.73-2.624c-0.961-0.364-1.582-1.172-2.105-2.739c-0.406-1.223-1.088-2.291-1.514-2.373
	c-0.426-0.083-1.643,0.961-2.703,2.318c-1.637,2.092-1.887,2.744-1.646,4.271c0.156,0.992,0.695,2.152,1.201,2.578
	c1.629,1.377,3.838,4.653,4.326,6.418c0.369,1.342,0.928,1.901,2.535,2.545c1.135,0.453,2.521,0.824,3.082,0.824
	c0.842,0,1.02,0.351,1.02,2.013c0,1.764-0.129,1.979-1.039,1.741c-0.57-0.148-2.047-1.178-2.598-1.178
	c-1.115,0-1.258,0.914-0.533,3.438c0.354,1.234,0.268,1.91-0.361,2.809c-0.465,0.662-1.121,3.441-1.492,6.326
	c-0.604,4.672-0.816,5.303-2.33,6.863c-1.574,1.625-1.666,1.932-1.68,5.604c-0.014,3.754,0.025,3.877,1.146,3.662
	c0.887-0.168,1.158,0.02,1.158,0.803c0,0.562,0.812,2.82,1.805,5.016c1.828,4.053,2.248,6.963,1.27,8.793
	c-0.74,1.383-1.826,1.246-2.92-0.367c-0.51-0.752-2.057-2.453-3.439-3.781c-1.943-1.865-2.799-2.359-3.771-2.174l-1.258,0.24
	l1.637,1.689c1.59,1.641,1.607,1.703,0.584,2.25c-0.578,0.311-1.557,0.562-2.175,0.562c-0.862,0-0.914,2.43-1.3,2.939
	c-1.074,1.416-0.873,2.129,0.651,2.309c1.361,0.16,1.386,0.23,1.357,3.77c-0.016,1.982-0.205,4.023-0.42,4.533
	c-0.266,0.627-0.095,1.143,0.53,1.6c1.158,0.846,0.658,2.367-0.776,2.367c-1.442,0-1.311,0.717,0.292,1.572
	c1.921,1.029,3.814,3.457,3.814,4.893c0,0.766-0.57,1.656-1.504,2.346c-1.281,0.947-1.428,1.283-0.982,2.262
	c0.434,0.949,0.293,1.381-0.812,2.486c-1.609,1.607-1.655,2.342-0.309,4.855c1.107,2.064,1.342,5.432,0.529,7.572
	c-0.455,1.197-0.383,1.32,0.771,1.32c1.018,0,1.275,0.262,1.275,1.289c0,0.709-2.164,3.789-1.812,5.865
	c0.338,2.004,0.455,2.121,2.133,2.121c2.186,0,2.613,0.895,1.773,3.703c-0.592,1.973-0.545,2.182,0.887,3.963
	c2.418,3.01,2.482,3.844,0.373,4.85c-2.119,1.012-2.205,1.428-0.648,3.104c1.488,1.6,3.785,2.117,8.76,1.969
	c4.518-0.137,4.492-0.168,3.094,3.748c-0.695,1.943-0.756,2.582-0.26,2.748c0.354,0.119,2.996,3.736,3.746,3.736
	c0.215,0,1.477-3.859,2.01-4.344c1.145-1.035,5.252-2.354,7.334-2.354c1.443,0,1.465,0.043,1.465,3.041
	c0,2.928,0.066,3.078,1.803,4.104c1.084,0.641,1.803,1.467,1.803,2.072c0,1.867,2.705,4.305,6.955,6.268
	c6.469,2.988,13.369,9.162,11.537,10.322c-1.412,0.895-2.963,0.438-5.424-1.598c-1.377-1.137-2.588-1.809-2.693-1.492
	s1.516,3.096,3.604,6.174c3.199,4.717,3.844,5.418,4.088,4.455c0.34-1.328,1.291-1.283,4.186,0.193
	c2.297,1.172,2.479,1.191,2.479,0.264c0-0.396,0.344-0.852,0.766-1.012c0.885-0.34,1.801,1.086,1.834,2.854
	c0.035,1.879,1.217,4.748,3.537,8.588c1.658,2.744,2.607,3.752,4.215,4.477c2.803,1.264,3.336,2.359,1.832,3.771
	c-1.48,1.393-1.67,1.381-3.121-0.186c-1.238-1.336-2.365-1.689-2.365-0.746c0,0.299,0.701,1.285,1.557,2.191
	c2.449,2.592,1.945,3.611-2.07,4.184l-3.35,0.479c0,0,4.57,1.84,9.66-0.004c0.713-0.258,0.902,0.084,0.902,1.51
	c0,2.42-1.303,3.463-4.316,3.463c-2.406,0-4.398,0.748-7.146,2.682c-1.168,0.82-1.324,1.17-0.885,1.99
	c0.439,0.822,0.217,1.311-1.289,2.816c-1,1.002-2.342,3.068-2.98,3.348c-1.688,0.734-5.629,3.736-6.074,4.629
	c-0.211,0.42-0.635,1.402-0.943,2.182c-0.449,1.141-0.889,1.418-2.244,1.426c-2.164,0.01-2.809,0.445-3.248,2.191
	c-0.41,1.633-0.768,1.916-3.086,2.439c-1.582,0.357-1.709,0.285-1.912-1.098c-0.119-0.814,0.627-1.887,0.619-2.383
	c-0.016-0.801-2.193,1.365-2.689,1.555c-1.367,0.523-1.264,4.314,0.129,4.758c0.568,0.18,3.607,1.076,3.607,0.818
	c0-0.818,4.371-2.623,6.355-2.623c1.59,0,2.014-0.238,2.533-1.416c1.408-3.205,3.443-2.961,6.891,0.83
	c3.754,4.127,3.791,4.504,0.812,8.391c-3.172,4.139-4.572,4.484-6.969,1.715c-3.775-4.363-5.156-5.645-5.375-4.994
	c-0.123,0.365,0.871,2.387,0.135,3.199c-0.881,0.975-0.865,1.027,0.477,1.537c0.766,0.291,1.838,0.527,2.387,0.527
	c0.889,0,0.998,0.383,0.998,3.518c0,3.104-0.154,3.662-1.316,4.752c-0.904,0.85-1.229,1.58-1.037,2.342
	c0.234,0.932-0.096,1.248-2.104,2.014c-2.193,0.838-2.418,0.844-2.852,0.068c-0.699-1.25-1.234-1.062-3.859,1.348
	c-2.791,2.562-4.793,6.486-4.799,9.414c-0.004,1.506-0.508,2.836-1.844,4.863c-3.201,4.859-4.621,4.912-3.998,0.148
	c0.168-1.289-0.885-3.176-1.074-4.379c-0.541-3.436-1.33-6.055-1.828-6.055c-0.25,0-1.904,3.729-2.898,4.521
	c-1.596,1.273-1.76,1.652-1.76,4.078c0,2.969-0.633,3.77-2.004,2.527c-1.088-0.984-2.123-1.072-2.104-0.178
	c0.01,0.354,2.947,4.811,2.791,4.965c-0.154,0.154-1.139,0.289-2.186,0.299c-1.834,0.016-1.916,0.094-2.164,2.078l-0.258,2.061
	c0,0-6.734,0.295-8.039,0.506c-1.52,0.246-2.77,0.17-3.479-0.209c-1.148-0.613-0.291,1.803-0.83,2.834
	c-0.432,0.828-0.785,1.922-0.787,2.432c-0.01,2.965-6.201,5.121-11.315,3.941c-1.571-0.361-6.299-1.148-10.504-1.75
	c-8.612-1.229-10.293-0.965-10.803,1.688c-0.348,1.811-0.234,1.865,1.749,0.84c1.336-0.691,2.495-0.809,5.587-0.57
	c5.451,0.422,12.976,1.254,13.178,1.455c0.093,0.092,6.952,6.643,6.952,7.141c0,1.447-3.364,4.006-6.442,4.9
	c-1.558,0.453-2.831,1.039-2.831,1.303c0,0.943,2.085,2.539,3.318,2.539c1.904,0,2.022,0.826,0.294,2.057
	c-1.944,1.385-1.954,1.895-0.042,2.314c2.442,0.537,2.887,1.52,1.264,2.797c-1.54,1.211-1.445,1.652,1.102,5.145
	c1.56,2.139,1.591,2.83,0.187,4.234c-0.882,0.883-1.522,1.041-3.349,0.836c-2.514-0.283-2.931,0.178-0.971,1.07
	c1.107,0.506,1.604,5.771,2.104,6.324c0.754,0.834,0.705,0.973-0.645,1.816c-0.803,0.504-1.539,0.969-1.635,1.031
	c-0.097,0.064,0.773,1.514,1.932,3.219c2.126,3.131,2.552,4.973,1.574,6.801c-0.751,1.402-1.333,1.268-4.359-1.018
	c-1.875-1.416-2.885-1.877-3.396-1.555l-1.933,2.576c0.648,1.154,2.285,3.133,3.636,4.396c1.827,1.709,2.259,2.373,1.687,2.594
	c-0.952,0.365-1.021,1.73-0.086,1.73c0.376,0,1.245,0.6,1.932,1.332l1.249,1.332l-6.415,8.018l1.662,2.512
	c1.533,2.32,1.66,2.832,1.636,6.639c-0.03,4.713-0.837,6.875-2.94,7.885c-1.047,0.502-1.413,1.053-1.413,2.131
	c0,0.801-0.606,2.781-1.348,4.4c-1.61,3.518-1.54,6.996,0.216,10.623c0.615,1.27,1.18,3.461,1.254,4.867l0.136,2.557l-2.054,0.166
	c-2.981,0.244-3.667,0.98-2.282,2.455c0.844,0.898,1.039,1.586,0.82,2.885c-0.841,5.002-1.466,7.879-1.868,8.598
	c-0.321,0.574-0.021,1.295,1.05,2.514c0.825,0.939-0.214,2.373-0.214,2.627c0,0.814-2.673,3.756-3.627,4.922
	c-0.954,1.164-2.249,3.391-2.878,4.947c-0.628,1.557-3.072,8.701-3.648,9.434c-2.203,2.799-3.181,6.033-3.667,12.123
	c-0.262,3.268-0.757,6.523-1.101,7.23c-0.343,0.709-1.668,1.895-2.943,2.635c-1.889,1.098-2.461,1.793-3.091,3.75
	c-0.897,2.791-1.845,3.891-3.526,4.094c-1,0.119-1.349-0.24-2.059-2.133c-0.675-1.797-1.344-2.537-3.174-3.514
	c-2.801-1.496-4.323-1.348-8.847,0.859c-3.693,1.801-7.315,2.143-7.854,0.74c-0.268-0.699-0.809-0.785-3.188-0.506
	c-2.76,0.324-2.929,0.273-4.609-1.406c-1.875-1.875-2.293-1.875-2.293,0.008c0,1.188-0.068,1.201-5.796,1.203
	c-6.035,0.004-9.38,0.586-9.81,1.705c-0.367,0.957,1.513,4.549,3.014,5.756c1.201,0.965,1.236,1.117,0.5,2.156
	c-1.76,2.492-5.731,1.812-7.994-1.363c-1.052-1.479-1.17-1.516-2.526-0.814c-3.67,1.896-10.333,10.68-12.139,16.002
	c-1.48,4.359-1.113,6.645,1.966,12.219c1.521,2.752,2.913,5.74,3.093,6.639c0.4,2.002-0.476,5.512-1.722,6.902
	c-0.508,0.566-1.335,1.842-1.836,2.834c-1.32,2.609-2.171,3.057-5.845,3.074c-2.453,0.014-3.729-0.256-5.023-1.055
	c-0.955-0.59-1.735-1.26-1.735-1.486c0-0.229-0.563-0.783-1.252-1.234c-1.113-0.73-1.413-0.736-2.705-0.062
	c-0.799,0.416-1.829,0.758-2.289,0.76s-1.928,0.486-3.263,1.076c-1.446,0.641-4.022,1.182-6.377,1.34
	c-3.43,0.23-4.307,0.506-6.656,2.082C222.882,1028.306,219.758,1028.847,217.303,1027.734z M266.645,842.802
	c0.612-1.68,4.962-8.617,5.584-10.531s1.917-4.908,2.876-6.654c1.365-2.486,1.746-3.773,1.749-5.926
	c0.008-5.477,3.475-12.918,8.504-18.25c1.705-1.807,1.711-1.809,3.578-1.029c1.967,0.822,2.083,0.75,2.446-1.502
	c0.091-0.566,3.567-1.336,3.409-2.16c-0.097-0.502-1.364-1.35-3-2.004c-3.438-1.379-3.771-2.514-1.849-6.309
	c0.929-1.832,2.182-11.414,2.418-11.717c0.766-0.977,1.162-6.23,0.501-6.639c-0.926-0.572-2.036,0.654-2.648,2.926
	c-0.369,1.371-1.66,3.236-3.858,5.578c-5.941,6.324-8.896,11.562-9.812,17.389c-0.193,1.23-7.837,15.957-9.154,18.65
	c-1.979,4.047-2.489,5.703-2.938,9.533c-0.424,3.625,2.297,5.828,0.73,9.053c-2.245,4.621-6.131,7.408-5.617,11.525
	c0.335,2.682,0.419,2.807,1.991,2.969C263.816,847.937,265.29,846.517,266.645,842.802z M195.446,803.587
	c0-0.383,4.542-4.447,5.827-4.322c2.021,0.195,2.362,1.406,1.072,3.805c-1.437,2.666-0.318,2.797,1.858,0.217
	c3.112-3.688,4.205-4.66,7.169-6.373c2.485-1.438,2.853-1.875,3.391-4.031c0.786-3.148,1.441-3.869,3.898-4.283
	c1.693-0.287,2.031-0.545,2.031-1.557c0-0.668-0.485-1.553-1.078-1.969l-1.078-0.754l1.078-1.078
	c0.593-0.594,1.715-1.111,2.495-1.152c2.865-0.152,5.042,0.178,5.76,0.871c0.637,0.617,0.553,1.086-0.614,3.471
	c-0.743,1.516-1.51,3.959-1.705,5.428c-0.344,2.59-0.316,2.67,0.916,2.67c1.031,0,1.548-0.557,2.749-2.963
	c1.505-3.016,4.358-6.998,4.741-6.615c0.116,0.117,13.482-3.051,13.782-3.299c0.3-0.25,0.855-1.338,1.235-2.418
	c0.746-2.123,3.458-5.314,4.519-5.314c1.356,0,1.911-2.279,1.794-7.371l-0.117-5.055l1.622-1.516
	c1.491-1.393,1.532-1.514,0.511-1.514c-1.815,0-4.151-1.467-4.151-2.607c0-1.977,1.419-4.408,3.794-6.498
	c2.669-2.35,2.921-3.455,1.56-6.857c-0.772-1.93-0.968-2.07-2.868-2.07c-2.832,0-3.836-0.678-5.311-3.59
	c-1.646-3.246-2.964-4.139-6.12-4.139h-2.532l0.321,2.732c0.176,1.502,0.462,3.436,0.634,4.295c0.415,2.072-0.849,3.41-2.782,2.947
	c-1.708-0.408-1.627-0.338-1.88-1.652c-0.291-1.512-3.186-5.615-4.434-6.281c-1.184-0.635-3.061-0.201-3.034,0.699
	c0.01,0.334,0.35,1.188,0.755,1.896c1.212,2.121,0.983,3.092-0.731,3.092c-1.347,0-1.593-0.27-2.359-2.572
	c-0.759-2.287-0.965-2.514-1.846-2.043c-0.914,0.49-0.965,0.939-0.66,5.793c0.224,3.547,0.408,6.033,1.29,7.174
	c5.176,6.691,3.304,16.264,3.304,17.504c0,2.199-0.84,2.48-2.475,2.479c-3.617-0.004-6.488-3.426-7.365-8.777
	c-0.29-1.77-0.829-2.691-2.345-4.012c-2.344-2.043-3.514-1.885-5.281,0.715c-0.658,0.969-2.173,2.469-3.367,3.334
	c-2.621,1.898-2.862,2.436-2.188,4.877c0.739,2.674,0.114,3.9-4.013,7.891c-5.422,5.238-5.515,8.557-0.306,10.861
	c2.553,1.129,2.781,1.799,1.473,4.33c-1.803,3.486-11.528,12.213-13.611,12.213c-0.534,0-0.652,3.07-0.166,4.336
	C190.963,805.46,195.446,803.968,195.446,803.587z M328.91,750.197c1.84-0.926,5.576-4.621,6.591-6.518
	c0.475-0.885,0.309-1.135-1.247-1.877c-2.471-1.178-5.664-1.102-7.287,0.174c-1.649,1.299-3.329,1.316-4.477,0.047
	c-1.749-1.932-3.472-2.25-8.964-1.652c-5.461,0.594-6.793,0.922-6.793,1.674c0,0.762,2.52,1.508,7.08,2.096
	c4.586,0.594,4.945,0.941,3.224,3.129c-1.533,1.949-1.301,2.836,0.902,3.439C322.27,751.894,325.87,751.726,328.91,750.197z
	 M384.635,740.046c0.795-0.957,1.73-0.791,3.336,0.59l1.438,1.236l1.756-1.541c1.426-1.252,2.055-1.482,3.357-1.227
	c4.189,0.822,6.518,0.918,7.266,0.299c1.25-1.037,0.92-1.727-1.527-3.205c-1.596-0.963-2.393-1.834-2.596-2.83
	c-0.701-3.463-1.033-4.012-2.582-4.271c-0.844-0.143-2.85-1.123-4.455-2.178c-2.182-1.436-3.006-2.322-3.268-3.514
	c-0.383-1.742-1.541-2.502-2.441-1.602c-0.314,0.314-0.52,1.736-0.455,3.16c0.133,2.906-0.27,3.15-2.535,1.537
	c-0.811-0.578-5.834-2.969-7.016-3.92c-2.479-1.996-3.29-2.109-5.215-0.729c-1.339,0.961-1.522,0.967-4.539,0.16
	c-3.086-0.826-3.17-0.82-4.577,0.287c-0.789,0.621-1.892,1.129-2.451,1.129c-0.9,0-5.406-4.229-7.347-6.895
	c-0.755-1.035-2.328-0.824-2.303,0.309c0.008,0.363,0.936,1.695,2.061,2.961c2.16,2.428,2.372,3.084,1.516,4.684
	c-0.907,1.695-3.117,2.406-9.362,3.01c-3.316,0.32-6.562,0.787-7.213,1.035c-1.162,0.443-1.156,0.459,0.336,0.848
	c0.915,0.238,18.136-2.705,19.938-3.203c5.09-1.404,7.684,0.004,10.829,2.684c1.511,1.289,7.328,7.236,9.355,8.221
	c2.973,1.445,3.209,1.689,3.598,3.734c0.344,1.805,0.658,2.24,1.803,2.492c0.764,0.168,1.619,0.363,1.902,0.436
	S384.34,740.402,384.635,740.046z M391.813,737.275c-5.559-0.924-8.15-3.236-5.779-5.156c1.75-1.416,5.557-1.795,7.506-0.744
	c2.766,1.49,4.4,5.455,2.541,6.168c-0.447,0.172-0.969,0.285-1.158,0.252S393.333,737.527,391.813,737.275z M377.141,732.619
	c-2.48-1.625-4.373-0.895-4.785-2.953c-0.285-1.428-0.181-1.555,1.523-1.875c1.393-0.26,2.32-0.066,3.891,0.816
	c2.197,1.234,3.203,2.969,3.332,5.738c0.068,1.463-0.104,1.729-1.209,1.855C379.161,736.285,378.313,733.384,377.141,732.619z
	 M288.626,630.939c1.48-1.561,2.3-1.6,4.264-0.201c1.588,1.131,3.024,1.016,3.024-0.24c0-0.695,4.312-3.93,5.241-3.93
	c0.234,0,0.427-0.463,0.427-1.029c0-1.381-2.116-1.371-6.268,0.027c-1.729,0.582-3.451,0.941-3.825,0.799
	c-0.375-0.145-1.148-1.178-1.72-2.299c-1.2-2.352-3.275-4.148-5.251-4.543c-1.027-0.205-1.456-0.672-1.688-1.832
	c-0.463-2.316,0.884-6.686,0.395-8.512c-0.634-2.363-4.696-0.916-5.623,2.004c-0.366,1.152,2.607,3.701,3.122,7.012
	c0.327,2.102-2.326,2.426-2.326,3.633c0,0.793,0.278,1.721,0.619,2.061c0.767,0.768,4.033-1.863,4.474-1.039
	c0.277,0.518,0.378,1.881,0.225,3.027c-0.228,1.699-0.018,2.482,1.134,4.223c0.778,1.174,1.673,2.133,1.99,2.127
	C287.153,632.222,287.958,631.642,288.626,630.939z M282.287,481.551c1.169-2.799,0.893-5.792-1.052-11.356
	c-0.989-2.831-1.8-5.708-1.803-6.395c-0.007-1.838,1.42-3.132,3.458-3.132c2.125,0,3.475,0.649,5.675,2.731
	c0.917,0.868,1.805,1.439,1.974,1.271s-0.4-1.834-1.264-3.7c-1.214-2.624-1.819-3.393-2.666-3.393c-0.662,0-1.202,0.407-1.365,1.03
	c-0.424,1.623-3.387,1.404-4.768-0.353c-1.431-1.818-1.164-2.834,0.884-3.365c1.477-0.383,1.674-0.641,1.674-2.191
	c0-2.313-0.823-2.737-2.119-1.09c-1.374,1.747-2.58,1.683-3.982-0.214c-0.628-0.851-1.497-1.546-1.929-1.546
	s-2.42-0.695-4.417-1.546c-3.877-1.649-6.101-1.967-6.101-0.871c0,0.943,0.986,2.053,3.091,3.478c3.339,2.26,4.05,4.268,1.811,5.119
	l-1.28,0.486l1.04,1.763c0.783,1.327,1.579,1.897,3.224,2.312c5.214,1.313,8.207,8.298,5.356,12.501
	c-0.651,0.961-1.349,2.178-1.55,2.703c-0.537,1.4,0.557,4.899,1.974,6.316C279.942,483.9,281.386,483.706,282.287,481.551z
	 M439.143,88.185c0-0.793-1.82-1.554-4.486-1.875c-4.637-0.559-6.807-1.592-5.303-2.522c0.285-0.175,0.516-0.625,0.516-0.998
	c0-0.497-0.604-0.611-2.248-0.426c-1.844,0.208-3.07-0.115-6.826-1.799c-2.518-1.129-7.469-3.148-11.002-4.487
	s-6.887-2.761-7.457-3.159c-0.568-0.398-1.586-0.724-2.262-0.724c-1.082,0-1.188,0.169-0.877,1.417
	c0.457,1.846,2.102,3.584,4.605,4.867c1.658,0.85,2.572,0.972,5.193,0.691c3.104-0.332,3.238-0.294,5.379,1.495
	c1.209,1.009,2.521,1.835,2.92,1.835s1.826,0.567,3.172,1.261C426.491,86.865,439.143,89.862,439.143,88.185z M348.787,965.169
	c-0.306-0.496-0.438-6.812-0.232-11.182c0.067-1.416-0.335-13.885,0.494-15.738c0.534-1.191,1.095-2.891,1.247-3.775
	c0.565-3.297,1.358-5.598,3.344-9.703c1.121-2.32,2.039-4.65,2.039-5.18c0-1.521,0.867-2.758,2.691-3.838
	c1.664-0.984,2.256-1.859,3.509-5.188c0.35-0.93,6.661-15.482,6.282-16.09c-0.357-0.572,2.117-10.477,3.418-11.934
	c1.085-1.215,1.876-1.594,3.429-1.646c2.51-0.084,2.783,0.75,1.309,3.986c-0.582,1.281-1.061,3.328-1.062,4.547
	c-0.002,1.346-0.406,2.826-1.027,3.764c-0.562,0.85-5.727,15.109-5.533,16.65c0.184,1.451-0.58,4.164-3.242,11.523
	c-1.929,5.334-3.642,11.004-3.84,12.713c-0.258,2.223-0.849,3.846-2.117,5.814c-1.419,2.203-3.301,10.652-3.301,12.578
	c0,1.922-3,8.857-3.673,10.275c-0.832,1.754-1.576,2.627-2.333,2.734C349.578,965.568,348.947,965.427,348.787,965.169z
	 M416.797,911.933c-0.582-2.904-0.35-3.596,1.996-5.941c2.494-2.494,2.932-3.783,1.287-3.783c-0.871,0-1.029-0.342-1.029-2.221
	c0-1.797-0.297-2.506-1.547-3.703c-1.367-1.311-1.545-1.822-1.545-4.459c0-2.449-0.184-3.074-1.031-3.527
	c-1.346-0.721-1.299-1.262,0.279-3.33c2.146-2.814,2.408-4.549,1.066-7.098c-0.83-1.574-1.002-6.85-1.865-8.016
	c-1.777-2.404-1.086-4.152,3.125-7.895c3.811-3.387,7.246-8.791,7.912-12.443c0.449-2.471,2.695-5.033,6.119-6.977
	c1.477-0.84,3.246-2.131,3.934-2.873c0.688-0.74,1.656-1.346,2.154-1.346c0.945,0,1.184,0.52,1.727,3.736
	c0.619,3.662,2.318,1.975,2.334-2.318c0.006-1.795,0.115-1.934,1.527-1.934c0.898,0,1.74,0.369,2.061,0.902
	c0.514,0.859,0.566,0.857,1.084-0.004c0.418-0.697,0.764-0.785,1.512-0.385c1.584,0.848,1.895,0.646,3.559-2.301
	c0.875-1.551,2.156-3.189,2.844-3.641c1.139-0.746,1.395-0.748,2.812-0.016c0.857,0.445,2.383,0.807,3.389,0.807
	c2.232,0,2.418,1.008,0.471,2.539c-0.842,0.662-2.115,1.068-3.35,1.068c-1.924,0-1.99,0.059-1.99,1.766
	c0,1.947-8.863,11.553-9.141,12.402c-0.434,1.332-0.729,1.527-2.133,1.414c-1.938-0.158-2.461,0.824-3.213,6.027
	c-0.379,2.629,0.514,11.758,1.869,12.822c0.781,0.615,2.086,1.117,2.896,1.117c1.303,0,1.477,0.186,1.477,1.57
	c0,1.932-1.535,3.553-5.051,5.334c-3.82,1.936-5.625,4.947-2.965,4.947c0.691,0,1.396,0.225,1.568,0.502
	c0.525,0.85-3.869,5.127-8.096,7.881c-2.965,1.932-3.945,2.842-3.744,3.475c0.15,0.473-0.203,1.465-0.785,2.205
	s-1.541,2.439-2.133,3.777c-1.049,2.369-1.051,2.449-0.111,3.139c0.939,0.688,0.936,0.758-0.125,2.615
	c-1.258,2.199-6.02,5.773-7.691,5.773C417.395,913.544,417.04,913.154,416.797,911.933z M159.484,835.128
	c-1.006-1.008-0.724-2.615,1.185-6.746c2.137-4.625,3.391-5.398,5.251-3.236c1.465,1.705,1.53,3.912,0.153,5.229
	c-0.57,0.547-1.324,1.309-1.675,1.693C160.703,836.132,160.571,836.214,159.484,835.128z M156.906,823.601
	c-0.576-0.404-1.56-1.564-2.186-2.578c-0.996-1.611-1.055-2-0.466-3.098c0.37-0.691,2.239-2.328,4.153-3.635
	c2.065-1.412,3.73-2.98,4.093-3.857c0.524-1.264,0.898-1.479,2.591-1.479c2.229,0,3.731,1.225,4.931,4.02
	c1.046,2.438,0.417,4.84-1.981,7.564c-2.117,2.404-3.323,2.893-3.836,1.555c-0.485-1.266-3.133-0.957-4.069,0.471
	C159.057,824.208,158.179,824.492,156.906,823.601z M367.108,816.296c-0.3-0.779-1.521-4.807-1.93-4.963
	c-1.041-0.4-0.922-1.541,0.276-2.625c0.947-0.857,1.104-0.861,2.298-0.08c2.199,1.441,3.25,7.154,1.545,8.4
	C367.984,817.99,367.727,817.904,367.108,816.296z M456.147,808.033c-1.662-0.549-3.607-2.287-3.607-3.223
	c0-1.236,2.15-2.688,3.654-2.465c1.787,0.266,3.203,2.516,2.594,4.121C458.241,807.902,457.35,808.431,456.147,808.033z
	 M413.727,767.394c-1.742-1.74,2.061-5.682,5.195-5.385c1.225,0.115,0.635,1.736-1.357,3.729
	C415.661,767.642,414.483,768.15,413.727,767.394z M418.536,758.396c0-2.492,4.244-7.088,5.943-6.438
	c1.1,0.422,0.93,1.436-0.578,3.443c-0.732,0.975-1.539,2.295-1.791,2.934C421.467,759.964,418.536,760.013,418.536,758.396z
	 M425.165,726.746c-1.258-1.258-0.574-2.982,1.783-4.494c1.182-0.758,2.523-1.652,2.98-1.986s1.227-0.455,1.711-0.27
	c1.314,0.504,0.574,2.342-1.805,4.479c-1.113,0.998-2.025,2.1-2.025,2.447C427.809,727.814,426.12,727.703,425.165,726.746z
	 M434.762,715.572c0.664-3.303,0.754-3.412,3.084-3.76c2.662-0.4,3.359-0.08,3.359,1.541c0,0.783-2.014,2.01-1.824,2.314
	c0.396,0.641-1.775,1.578-3.66,1.578C434.534,717.246,434.454,717.107,434.762,715.572z"/>
</svg>
